<svg viewBox="0 0 500 394" xmlns="http://www.w3.org/2000/svg"><circle cx="375" cy="122.95" fill="#21bddb" r="38.98"/><g fill="#fff" fill-rule="evenodd"><path d="m217.17 234.77c-2.34-1.52-9-10.45-27.42-54.44-1.15-2.76-2.22-5.14-3.23-7.18l-3.77-9.08-32.28-77.95h-64.58l32.29 77.95 32.29 78 29.82 72a2.68 2.68 0 0 0 4.94 0l32.45-77.68a1.34 1.34 0 0 0 -.51-1.62z"/><path d="m338.15 234.77c-2.34-1.52-9-10.45-27.42-54.44-1.15-2.76-2.23-5.14-3.24-7.19l-3.75-9.07-32.29-77.95h-64.58l32.29 77.95 32.29 78 29.82 72a2.68 2.68 0 0 0 4.94 0l32.45-77.67a1.36 1.36 0 0 0 -.51-1.63z"/></g></svg>