<!--?xml version="1.0" encoding="utf-8"?-->
<!-- Generator: Adobe Illustrator 15.1.0, SVG Export Plug-In . SVG Version: 6.00 Build 0)  -->

<svg version="1.1" id="_x32_" xmlns="http://www.w3.org/2000/svg" xmlns:xlink="http://www.w3.org/1999/xlink" x="0px" y="0px" width="512px" height="512px" viewBox="0 0 512 512" style="width: 256px; height: 256px; opacity: 1;" xml:space="preserve">
<style type="text/css">

	.st0{fill:#4B4B4B;}

</style>
<g>
	<path class="st0" d="M259.119,460.031c0,13.406-10.875,24.266-24.266,24.266h-51.031c-13.406,0-24.266-10.859-24.266-24.266
		v-11.203c0-13.406,10.859-24.266,24.266-24.266h51.031c13.391,0,24.266,10.859,24.266,24.266V460.031z" style="fill: rgb(75, 75, 75);"></path>
	<path class="st0" d="M36.9,365.688h-4.266c-13.391,0-24.266,10.875-24.266,24.266v33.516c0,13.406,6.25,24.281,16.953,24.281h2.672
		c11.578,0,8.906,10.859,8.906,24.266v15.719C36.9,501.125,47.775,512,61.166,512H98.26c13.406,0,24.266-10.875,24.266-24.266
		V447.75v-57.797c0-13.391-10.859-24.266-24.266-24.266H36.9z" style="fill: rgb(75, 75, 75);"></path>
	<path class="st0" d="M338.322,161.438c-11.422,0-21.297,7.969-23.703,19.125l-13.563,62.531
		c-2.406,11.156-12.297,19.125-23.719,19.125H125.385c-13.391,0-24.266,10.875-24.266,24.266v18.375
		c0,13.391,10.875,24.266,24.266,24.266h4.984c13.391,0,24.266,10.875,24.266,24.281v12.078c0,13.391,10.875,24.266,24.266,24.266
		h188.125c11.391,0,21.25-7.938,23.703-19.094l39.313-179.781c1.578-7.156-0.188-14.656-4.797-20.375
		c-4.609-5.75-11.563-9.063-18.922-9.063H338.322z" style="fill: rgb(75, 75, 75);"></path>
	<path class="st0" d="M487.947,108.75c-2.188,11.422-12.172,19.688-23.844,19.688H358.588c-7.234,0-14.109-3.203-18.688-8.781
		c-4.625-5.594-6.516-12.938-5.156-20.031l15.25-79.906C352.182,8.281,362.182,0,373.838,0h105.531
		c7.234,0,14.078,3.219,18.688,8.813c4.625,5.578,6.5,12.922,5.141,20.031L487.947,108.75z" style="fill: rgb(75, 75, 75);"></path>
</g>
</svg>
