<!--?xml version="1.0" encoding="utf-8"?-->
<!-- Generator: Adobe Illustrator 18.0.0, SVG Export Plug-In . SVG Version: 6.00 Build 0)  -->

<svg version="1.1" id="_x32_" xmlns="http://www.w3.org/2000/svg" xmlns:xlink="http://www.w3.org/1999/xlink" x="0px" y="0px" viewBox="0 0 512 512" style="width: 256px; height: 256px; opacity: 1;" xml:space="preserve">
<style type="text/css">
	.st0{fill:#4B4B4B;}
</style>
<g>
	<path class="st0" d="M470.706,0L41.134,0.16l0.16,510.278v1.402l0,0V512h313.55l116.021-116.088L470.706,0z M120.667,98.782
		l130.317-0.16l0.16,29.298l-130.477,0.16V98.782z M360.665,67.247l0.16,30.809l30.485-0.16l0.16,36.946l-30.805,0.16l0.16,30.489
		l-36.95,0.16l-0.16-30.809l-30.485,0.16V98.056l30.645-0.16l-0.16-30.395v-0.094L360.665,67.247z M391.482,228.392l-270.803,0.16
		V199.25l270.643-0.16L391.482,228.392z M120.678,299.723l270.643-0.16l0.16,29.298l-270.803,0.16V299.723z M338.784,486.059
		V370.452l67.569-0.16h47.972l-67.936,68.164L338.784,486.059z" style="fill: rgb(75, 75, 75);"></path>
</g>
</svg>
